<svg width="329" height="98" viewBox="0 0 329 98" fill="none" xmlns="http://www.w3.org/2000/svg">
<path d="M42.9625 98C66.69 98 85.925 79.196 85.925 56C85.925 32.804 66.69 14 42.9625 14C19.235 14 0 32.804 0 56C0 79.196 19.235 98 42.9625 98Z" fill="#3A52ED" fill-opacity="0.28"/>
<path d="M55.2375 84C78.965 84 98.2 65.196 98.2 42C98.2 18.804 78.965 0 55.2375 0C31.5099 0 12.275 18.804 12.275 42C12.275 65.196 31.5099 84 55.2375 84Z" fill="#3A52ED"/>
<path d="M40.9167 23L24.55 42L40.9167 61" stroke="white" stroke-width="7" stroke-linecap="round" stroke-linejoin="round"/>
<path d="M69.5583 23L85.925 42L69.5583 61" stroke="white" stroke-width="7" stroke-linecap="round" stroke-linejoin="round"/>
<path d="M128.491 34.92V33.8H139.451V34.92L137.251 35.2C136.824 35.2533 136.571 35.3733 136.491 35.56C136.411 35.72 136.371 36.2533 136.371 37.16V57.64C136.371 58.5467 136.411 59.0933 136.491 59.28C136.571 59.44 136.824 59.5467 137.251 59.6L139.451 59.88V61H128.491V59.88L130.691 59.6C131.117 59.5467 131.371 59.44 131.451 59.28C131.531 59.0933 131.571 58.5467 131.571 57.64V37.16C131.571 36.2533 131.531 35.72 131.451 35.56C131.371 35.3733 131.117 35.2533 130.691 35.2L128.491 34.92ZM165.265 59.88V61H154.505V59.88L156.705 59.6C157.132 59.5467 157.385 59.44 157.465 59.28C157.545 59.0933 157.585 58.5467 157.585 57.64V47.56C157.585 45.72 157.332 44.3867 156.825 43.56C156.318 42.7067 155.558 42.28 154.545 42.28C154.118 42.28 153.612 42.4 153.025 42.64C152.438 42.8533 151.852 43.2533 151.265 43.84C150.705 44.4267 150.212 45.2933 149.785 46.44V57.64C149.785 58.5467 149.825 59.0933 149.905 59.28C149.985 59.44 150.238 59.5467 150.665 59.6L152.865 59.88V61H142.105V59.88L144.305 59.6C144.732 59.5467 144.985 59.44 145.065 59.28C145.145 59.0933 145.185 58.5467 145.185 57.64V44.08C145.185 43.1733 145.145 42.64 145.065 42.48C144.985 42.2933 144.732 42.1733 144.305 42.12L142.105 41.84V40.72H149.545V44.24C150.292 42.88 151.252 41.8933 152.425 41.28C153.598 40.64 154.785 40.32 155.985 40.32C157.425 40.32 158.638 40.6933 159.625 41.44C160.638 42.16 161.358 43.2 161.785 44.56C162.505 43.0667 163.478 41.9867 164.705 41.32C165.932 40.6533 167.158 40.32 168.385 40.32C170.278 40.32 171.785 40.9467 172.905 42.2C174.025 43.4533 174.585 45.2267 174.585 47.52V57.64C174.585 58.5467 174.625 59.0933 174.705 59.28C174.785 59.44 175.038 59.5467 175.465 59.6L177.665 59.88V61H166.905V59.88L169.105 59.6C169.532 59.5467 169.785 59.44 169.865 59.28C169.945 59.0933 169.985 58.5467 169.985 57.64V47.56C169.985 45.72 169.732 44.3867 169.225 43.56C168.718 42.7067 167.958 42.28 166.945 42.28C166.518 42.28 166.012 42.4 165.425 42.64C164.838 42.8533 164.252 43.2667 163.665 43.88C163.078 44.4933 162.572 45.3867 162.145 46.56C162.172 46.6933 162.185 46.8533 162.185 47.04C162.185 47.2 162.185 47.36 162.185 47.52V57.64C162.185 58.5467 162.225 59.0933 162.305 59.28C162.385 59.44 162.638 59.5467 163.065 59.6L165.265 59.88ZM178.739 41.84V40.72H186.179V44.04C186.952 42.7867 187.792 41.8533 188.699 41.24C189.606 40.6267 190.686 40.32 191.939 40.32C194.179 40.32 195.952 41.2133 197.259 43C198.592 44.76 199.259 47.24 199.259 50.44V51.24C199.259 54.3333 198.499 56.8 196.979 58.64C195.459 60.48 193.352 61.4 190.659 61.4C189.059 61.4 187.646 61 186.419 60.2V66.16C186.419 67.0667 186.459 67.6 186.539 67.76C186.619 67.9467 186.872 68.0667 187.299 68.12L190.299 68.4V69.52H178.739V68.4L180.939 68.12C181.366 68.0667 181.619 67.9467 181.699 67.76C181.779 67.6 181.819 67.0667 181.819 66.16V44.08C181.819 43.1733 181.779 42.64 181.699 42.48C181.619 42.2933 181.366 42.1733 180.939 42.12L178.739 41.84ZM190.899 42.08C190.232 42.08 189.526 42.36 188.779 42.92C188.059 43.4533 187.272 44.56 186.419 46.24V58.32C187.432 59.3333 188.672 59.84 190.139 59.84C191.632 59.84 192.699 59.1867 193.339 57.88C194.006 56.5467 194.339 54.7333 194.339 52.44V49.24C194.339 46.76 194.032 44.9467 193.419 43.8C192.806 42.6533 191.966 42.08 190.899 42.08ZM202.417 41.84V40.72H209.857V44C211.484 41.5467 213.417 40.32 215.657 40.32C216.484 40.32 217.284 40.5867 218.057 41.12C218.831 41.6267 219.471 42.5867 219.977 44L216.417 45.92C216.044 44.8267 215.604 44.0933 215.097 43.72C214.617 43.32 214.097 43.12 213.537 43.12C212.951 43.12 212.377 43.3067 211.817 43.68C211.257 44.0533 210.684 44.7467 210.097 45.76V57.64C210.097 58.5467 210.137 59.0933 210.217 59.28C210.297 59.44 210.551 59.5467 210.977 59.6L213.977 59.88V61H202.417V59.88L204.617 59.6C205.044 59.5467 205.297 59.44 205.377 59.28C205.457 59.0933 205.497 58.5467 205.497 57.64V44.08C205.497 43.1733 205.457 42.64 205.377 42.48C205.297 42.2933 205.044 42.1733 204.617 42.12L202.417 41.84ZM226.254 37.28C225.427 37.28 224.761 37.0267 224.254 36.52C223.747 35.9867 223.494 35.3067 223.494 34.48C223.494 33.6533 223.747 32.9867 224.254 32.48C224.761 31.9733 225.427 31.72 226.254 31.72C227.054 31.72 227.721 31.9733 228.254 32.48C228.787 32.9867 229.054 33.6533 229.054 34.48C229.054 35.3067 228.787 35.9867 228.254 36.52C227.721 37.0267 227.054 37.28 226.254 37.28ZM220.894 41.84V40.72H228.574V57.64C228.574 58.5467 228.614 59.0933 228.694 59.28C228.774 59.44 229.027 59.5467 229.454 59.6L231.654 59.88V61H220.894V59.88L223.094 59.6C223.521 59.5467 223.774 59.44 223.854 59.28C223.934 59.0933 223.974 58.5467 223.974 57.64V44.08C223.974 43.1733 223.934 42.64 223.854 42.48C223.774 42.2933 223.521 42.1733 223.094 42.12L220.894 41.84ZM256.759 59.88V61H245.999V59.88L248.199 59.6C248.625 59.5467 248.879 59.44 248.959 59.28C249.039 59.0933 249.079 58.5467 249.079 57.64V47.56C249.079 45.72 248.799 44.3867 248.239 43.56C247.705 42.7067 246.905 42.28 245.839 42.28C245.385 42.28 244.852 42.4 244.239 42.64C243.652 42.8533 243.052 43.2533 242.439 43.84C241.852 44.4267 241.332 45.2933 240.879 46.44V57.64C240.879 58.5467 240.919 59.0933 240.999 59.28C241.079 59.44 241.332 59.5467 241.759 59.6L243.959 59.88V61H233.199V59.88L235.399 59.6C235.825 59.5467 236.079 59.44 236.159 59.28C236.239 59.0933 236.279 58.5467 236.279 57.64V44.08C236.279 43.1733 236.239 42.64 236.159 42.48C236.079 42.2933 235.825 42.1733 235.399 42.12L233.199 41.84V40.72H240.639V44.24C241.412 42.88 242.399 41.8933 243.599 41.28C244.825 40.64 246.052 40.32 247.279 40.32C249.252 40.32 250.812 40.9467 251.959 42.2C253.105 43.4533 253.679 45.2267 253.679 47.52V57.64C253.679 58.5467 253.719 59.0933 253.799 59.28C253.879 59.44 254.132 59.5467 254.559 59.6L256.759 59.88ZM272.361 56.84C272.014 58.4667 271.347 59.64 270.361 60.36C269.401 61.0533 268.227 61.4 266.841 61.4C265.427 61.4 264.267 61.0933 263.361 60.48C262.454 59.84 261.787 59 261.361 57.96C260.934 56.92 260.721 55.8133 260.721 54.64V44.08C260.721 43.1733 260.681 42.64 260.601 42.48C260.521 42.2933 260.267 42.1733 259.841 42.12L257.641 41.84V40.72H260.721V36.08L265.321 35.16V40.72H271.721V42.12H265.321V55.44C265.321 57.1467 265.534 58.3333 265.961 59C266.387 59.64 266.934 59.96 267.601 59.96C268.294 59.96 268.827 59.6933 269.201 59.16C269.601 58.6267 269.854 57.6533 269.961 56.24L272.361 56.84Z" fill="white"/>
</svg>
