<svg width="491" height="120" viewBox="0 0 491 120" fill="none" xmlns="http://www.w3.org/2000/svg">
<path d="M53.1917 110C76.9192 110 96.1542 91.196 96.1542 68C96.1542 44.804 76.9192 26 53.1917 26C29.4641 26 10.2292 44.804 10.2292 68C10.2292 91.196 29.4641 110 53.1917 110Z" fill="#3A52ED" fill-opacity="0.28"/>
<path d="M65.4667 96C89.1942 96 108.429 77.196 108.429 54C108.429 30.804 89.1942 12 65.4667 12C41.7391 12 22.5042 30.804 22.5042 54C22.5042 77.196 41.7391 96 65.4667 96Z" fill="#3A52ED"/>
<path d="M51.1458 35L34.7792 54L51.1458 73" stroke="white" stroke-width="7" stroke-linecap="round" stroke-linejoin="round"/>
<path d="M79.7875 35L96.1542 54L79.7875 73" stroke="white" stroke-width="7" stroke-linecap="round" stroke-linejoin="round"/>
<path d="M138.72 46.92V45.8H149.68V46.92L147.48 47.2C147.053 47.2533 146.8 47.3733 146.72 47.56C146.64 47.72 146.6 48.2533 146.6 49.16V69.64C146.6 70.5467 146.64 71.0933 146.72 71.28C146.8 71.44 147.053 71.5467 147.48 71.6L149.68 71.88V73H138.72V71.88L140.92 71.6C141.347 71.5467 141.6 71.44 141.68 71.28C141.76 71.0933 141.8 70.5467 141.8 69.64V49.16C141.8 48.2533 141.76 47.72 141.68 47.56C141.6 47.3733 141.347 47.2533 140.92 47.2L138.72 46.92ZM175.494 71.88V73H164.734V71.88L166.934 71.6C167.361 71.5467 167.614 71.44 167.694 71.28C167.774 71.0933 167.814 70.5467 167.814 69.64V59.56C167.814 57.72 167.561 56.3867 167.054 55.56C166.547 54.7067 165.787 54.28 164.774 54.28C164.347 54.28 163.841 54.4 163.254 54.64C162.667 54.8533 162.081 55.2533 161.494 55.84C160.934 56.4267 160.441 57.2933 160.014 58.44V69.64C160.014 70.5467 160.054 71.0933 160.134 71.28C160.214 71.44 160.467 71.5467 160.894 71.6L163.094 71.88V73H152.334V71.88L154.534 71.6C154.961 71.5467 155.214 71.44 155.294 71.28C155.374 71.0933 155.414 70.5467 155.414 69.64V56.08C155.414 55.1733 155.374 54.64 155.294 54.48C155.214 54.2933 154.961 54.1733 154.534 54.12L152.334 53.84V52.72H159.774V56.24C160.521 54.88 161.481 53.8933 162.654 53.28C163.827 52.64 165.014 52.32 166.214 52.32C167.654 52.32 168.867 52.6933 169.854 53.44C170.867 54.16 171.587 55.2 172.014 56.56C172.734 55.0667 173.707 53.9867 174.934 53.32C176.161 52.6533 177.387 52.32 178.614 52.32C180.507 52.32 182.014 52.9467 183.134 54.2C184.254 55.4533 184.814 57.2267 184.814 59.52V69.64C184.814 70.5467 184.854 71.0933 184.934 71.28C185.014 71.44 185.267 71.5467 185.694 71.6L187.894 71.88V73H177.134V71.88L179.334 71.6C179.761 71.5467 180.014 71.44 180.094 71.28C180.174 71.0933 180.214 70.5467 180.214 69.64V59.56C180.214 57.72 179.961 56.3867 179.454 55.56C178.947 54.7067 178.187 54.28 177.174 54.28C176.747 54.28 176.241 54.4 175.654 54.64C175.067 54.8533 174.481 55.2667 173.894 55.88C173.307 56.4933 172.801 57.3867 172.374 58.56C172.401 58.6933 172.414 58.8533 172.414 59.04C172.414 59.2 172.414 59.36 172.414 59.52V69.64C172.414 70.5467 172.454 71.0933 172.534 71.28C172.614 71.44 172.867 71.5467 173.294 71.6L175.494 71.88ZM188.968 53.84V52.72H196.408V56.04C197.181 54.7867 198.021 53.8533 198.928 53.24C199.835 52.6267 200.915 52.32 202.168 52.32C204.408 52.32 206.181 53.2133 207.488 55C208.821 56.76 209.488 59.24 209.488 62.44V63.24C209.488 66.3333 208.728 68.8 207.208 70.64C205.688 72.48 203.581 73.4 200.888 73.4C199.288 73.4 197.875 73 196.648 72.2V78.16C196.648 79.0667 196.688 79.6 196.768 79.76C196.848 79.9467 197.101 80.0667 197.528 80.12L200.528 80.4V81.52H188.968V80.4L191.168 80.12C191.595 80.0667 191.848 79.9467 191.928 79.76C192.008 79.6 192.048 79.0667 192.048 78.16V56.08C192.048 55.1733 192.008 54.64 191.928 54.48C191.848 54.2933 191.595 54.1733 191.168 54.12L188.968 53.84ZM201.128 54.08C200.461 54.08 199.755 54.36 199.008 54.92C198.288 55.4533 197.501 56.56 196.648 58.24V70.32C197.661 71.3333 198.901 71.84 200.368 71.84C201.861 71.84 202.928 71.1867 203.568 69.88C204.235 68.5467 204.568 66.7333 204.568 64.44V61.24C204.568 58.76 204.261 56.9467 203.648 55.8C203.035 54.6533 202.195 54.08 201.128 54.08ZM212.647 53.84V52.72H220.087V56C221.713 53.5467 223.647 52.32 225.887 52.32C226.713 52.32 227.513 52.5867 228.287 53.12C229.06 53.6267 229.7 54.5867 230.207 56L226.647 57.92C226.273 56.8267 225.833 56.0933 225.327 55.72C224.847 55.32 224.327 55.12 223.767 55.12C223.18 55.12 222.607 55.3067 222.047 55.68C221.487 56.0533 220.913 56.7467 220.327 57.76V69.64C220.327 70.5467 220.367 71.0933 220.447 71.28C220.527 71.44 220.78 71.5467 221.207 71.6L224.207 71.88V73H212.647V71.88L214.847 71.6C215.273 71.5467 215.527 71.44 215.607 71.28C215.687 71.0933 215.727 70.5467 215.727 69.64V56.08C215.727 55.1733 215.687 54.64 215.607 54.48C215.527 54.2933 215.273 54.1733 214.847 54.12L212.647 53.84ZM236.483 49.28C235.656 49.28 234.99 49.0267 234.483 48.52C233.976 47.9867 233.723 47.3067 233.723 46.48C233.723 45.6533 233.976 44.9867 234.483 44.48C234.99 43.9733 235.656 43.72 236.483 43.72C237.283 43.72 237.95 43.9733 238.483 44.48C239.016 44.9867 239.283 45.6533 239.283 46.48C239.283 47.3067 239.016 47.9867 238.483 48.52C237.95 49.0267 237.283 49.28 236.483 49.28ZM231.123 53.84V52.72H238.803V69.64C238.803 70.5467 238.843 71.0933 238.923 71.28C239.003 71.44 239.256 71.5467 239.683 71.6L241.883 71.88V73H231.123V71.88L233.323 71.6C233.75 71.5467 234.003 71.44 234.083 71.28C234.163 71.0933 234.203 70.5467 234.203 69.64V56.08C234.203 55.1733 234.163 54.64 234.083 54.48C234.003 54.2933 233.75 54.1733 233.323 54.12L231.123 53.84ZM266.988 71.88V73H256.228V71.88L258.428 71.6C258.854 71.5467 259.108 71.44 259.188 71.28C259.268 71.0933 259.308 70.5467 259.308 69.64V59.56C259.308 57.72 259.028 56.3867 258.468 55.56C257.934 54.7067 257.134 54.28 256.068 54.28C255.614 54.28 255.081 54.4 254.468 54.64C253.881 54.8533 253.281 55.2533 252.668 55.84C252.081 56.4267 251.561 57.2933 251.108 58.44V69.64C251.108 70.5467 251.148 71.0933 251.228 71.28C251.308 71.44 251.561 71.5467 251.988 71.6L254.188 71.88V73H243.428V71.88L245.628 71.6C246.054 71.5467 246.308 71.44 246.388 71.28C246.468 71.0933 246.508 70.5467 246.508 69.64V56.08C246.508 55.1733 246.468 54.64 246.388 54.48C246.308 54.2933 246.054 54.1733 245.628 54.12L243.428 53.84V52.72H250.868V56.24C251.641 54.88 252.628 53.8933 253.828 53.28C255.054 52.64 256.281 52.32 257.508 52.32C259.481 52.32 261.041 52.9467 262.188 54.2C263.334 55.4533 263.908 57.2267 263.908 59.52V69.64C263.908 70.5467 263.948 71.0933 264.028 71.28C264.108 71.44 264.361 71.5467 264.788 71.6L266.988 71.88ZM282.59 68.84C282.243 70.4667 281.576 71.64 280.59 72.36C279.63 73.0533 278.456 73.4 277.07 73.4C275.656 73.4 274.496 73.0933 273.59 72.48C272.683 71.84 272.016 71 271.59 69.96C271.163 68.92 270.95 67.8133 270.95 66.64V56.08C270.95 55.1733 270.91 54.64 270.83 54.48C270.75 54.2933 270.496 54.1733 270.07 54.12L267.87 53.84V52.72H270.95V48.08L275.55 47.16V52.72H281.95V54.12H275.55V67.44C275.55 69.1467 275.763 70.3333 276.19 71C276.616 71.64 277.163 71.96 277.83 71.96C278.523 71.96 279.056 71.6933 279.43 71.16C279.83 70.6267 280.083 69.6533 280.19 68.24L282.59 68.84Z" fill="#0B0F19"/>
</svg>
